<svg id="Grupo_2" data-name="Grupo 2" xmlns="http://www.w3.org/2000/svg" width="1920" height="1080" viewBox="0 0 1920 1080">
  <rect id="Retângulo_1" data-name="Retângulo 1" width="1920" height="1080" fill="#fdfdf3"/>
  <path id="Polígono_1" data-name="Polígono 1" d="M29,0,58,41H0Z" transform="translate(41 133.5) rotate(90)" fill="#ffd466"/>
  <path id="Polígono_2" data-name="Polígono 2" d="M27.5,0,55,41H0Z" transform="translate(1879 460) rotate(-90)" fill="#ffd466"/>
  <path id="Polígono_4" data-name="Polígono 4" d="M19,0,38,26H0Z" transform="translate(26 518.5) rotate(90)" fill="#53bfed"/>
  <path id="Polígono_5" data-name="Polígono 5" d="M27.5,0,55,38H0Z" transform="translate(38 558.5) rotate(90)" fill="#f74a2a"/>
  <path id="Polígono_6" data-name="Polígono 6" d="M19,0,38,26H0Z" transform="translate(26 882.5) rotate(90)" fill="#f74a2a"/>
  <path id="Polígono_7" data-name="Polígono 7" d="M19,0,38,26H0Z" transform="translate(1894 917.5) rotate(-90)" fill="#5d9e64"/>
  <path id="Polígono_8" data-name="Polígono 8" d="M27.5,0,55,37H0Z" transform="translate(1883 230.5) rotate(-90)" fill="#f596c0"/>
  <path id="Polígono_9" data-name="Polígono 9" d="M18.5,0,37,26H0Z" transform="translate(1894 174.4) rotate(-90)" fill="#51c0ed"/>
  <rect id="Retângulo_2" data-name="Retângulo 2" width="13" height="13" transform="matrix(0.777, 0.629, -0.629, 0.777, 262.414, 116.078)" fill="#f44c2f"/>
  <rect id="Retângulo_3" data-name="Retângulo 3" width="13" height="13" transform="matrix(0.777, 0.629, -0.629, 0.777, 480.414, 80.078)" fill="#1c8fc7"/>
  <circle id="Elipse_1" data-name="Elipse 1" cx="7.5" cy="7.5" r="7.5" transform="translate(738 101)" fill="#f5bad6"/>
  <rect id="Retângulo_4" data-name="Retângulo 4" width="39" height="7" transform="matrix(0.883, 0.469, -0.469, 0.883, 697.051, 292.77)" fill="#34b187"/>
  <circle id="Elipse_2" data-name="Elipse 2" cx="7.5" cy="7.5" r="7.5" transform="translate(240 419)" fill="#619c66"/>
  <rect id="Retângulo_5" data-name="Retângulo 5" width="39" height="7" transform="translate(495 385.225) rotate(120)" fill="#1995c9"/>
  <circle id="Elipse_3" data-name="Elipse 3" cx="7.5" cy="7.5" r="7.5" transform="translate(890 525)" fill="#f5bad6"/>
  <rect id="Retângulo_7" data-name="Retângulo 7" width="39" height="7" transform="translate(627.895 681.228) rotate(-4.992)" fill="#5c9b62"/>
  <path id="Polígono_12" data-name="Polígono 12" d="M8.5,0,17,15H0Z" transform="translate(546.72 804.905) rotate(103)" fill="#f7c901"/>
  <path id="Polígono_13" data-name="Polígono 13" d="M8,0l8,16H0Z" transform="translate(397.266 982.081) rotate(-99)" fill="#5d9a61"/>
  <rect id="Retângulo_10" data-name="Retângulo 10" width="13" height="13" transform="matrix(0.777, 0.629, -0.629, 0.777, 674.537, 975.081)" fill="#ec5023"/>
  <rect id="Retângulo_11" data-name="Retângulo 11" width="13" height="13" transform="matrix(0.777, 0.629, -0.629, 0.777, 121.537, 975.081)" fill="#6969a9"/>
  <rect id="Retângulo_12" data-name="Retângulo 12" width="39" height="7" transform="matrix(-0.276, 0.961, -0.961, -0.276, 1290.922, 752.615)" fill="#5c9b62"/>
  <rect id="Retângulo_13" data-name="Retângulo 13" width="39" height="7" transform="translate(1732.968 499.22) rotate(-115)" fill="#f7c901"/>
  <path id="Polígono_14" data-name="Polígono 14" d="M8.5,0,17,15H0Z" transform="translate(1327.804 374.482) rotate(11)" fill="#6969a9"/>
  <path id="Polígono_15" data-name="Polígono 15" d="M8.5,0,17,15H0Z" transform="matrix(-0.829, -0.559, 0.559, -0.829, 1204.55, 632.51)" fill="#f7c901"/>
  <rect id="Retângulo_14" data-name="Retângulo 14" width="39" height="7" transform="translate(960 239.145) rotate(-77.993)" fill="#f5bad6"/>
  <path id="Polígono_16" data-name="Polígono 16" d="M8,0l8,16H0Z" transform="translate(1092.702 429.488) rotate(12.007)" fill="#5d9a61"/>
  <rect id="Retângulo_15" data-name="Retângulo 15" width="13" height="13" transform="translate(999.872 690.852) rotate(150)" fill="#ec5023"/>
  <rect id="Retângulo_16" data-name="Retângulo 16" width="39" height="7" transform="matrix(0.883, 0.469, -0.469, 0.883, 1576.917, 64.569)" fill="#34b187"/>
  <path id="Polígono_17" data-name="Polígono 17" d="M8.5,0,17,15H0Z" transform="translate(1276.586 63.704) rotate(103)" fill="#f7c901"/>
  <circle id="Elipse_5" data-name="Elipse 5" cx="7.5" cy="7.5" r="7.5" transform="translate(1114.866 220.799)" fill="#f44c2f"/>
  <rect id="Retângulo_18" data-name="Retângulo 18" width="13" height="13" transform="matrix(0.777, 0.629, -0.629, 0.777, 1569.281, 261.876)" fill="#f7c901"/>
  <rect id="Retângulo_19" data-name="Retângulo 19" width="39" height="7" transform="translate(1570.242 894.527) rotate(-4.992)" fill="#1995c9"/>
  <circle id="Elipse_4" data-name="Elipse 4" cx="7.5" cy="7.5" r="7.5" transform="translate(1519.866 624.799)" fill="#f5bad6"/>
  <rect id="Retângulo_20" data-name="Retângulo 20" width="13" height="13" transform="matrix(0.777, 0.629, -0.629, 0.777, 1676.537, 761.253)" fill="#ec5023"/>
  <rect id="Retângulo_21" data-name="Retângulo 21" width="13" height="13" transform="translate(1360.471 1001.126) rotate(180)" fill="#6969a9"/>
  <path id="Polígono_18" data-name="Polígono 18" d="M8.5,0,17,15H0Z" transform="translate(1145.445 949.004) rotate(-115.976)" fill="#f7c901"/>
  <rect id="Retângulo_23" data-name="Retângulo 23" width="13" height="13" transform="matrix(0.777, 0.629, -0.629, 0.777, 1488.764, 475.883)" fill="#1c8fc7"/>
  <path id="Polígono_22" data-name="Polígono 22" d="M7.5,0,15,13H0Z" transform="translate(1874.302 81.446) rotate(-48)" fill="#f04d24"/>
  <path id="Polígono_23" data-name="Polígono 23" d="M8,0l8,14H0Z" transform="translate(1863.371 341.836) rotate(-101)" fill="#696ba4"/>
  <path id="Polígono_24" data-name="Polígono 24" d="M8,0l8,14H0Z" transform="translate(1827.371 963.836) rotate(-101)" fill="#696ba4"/>
  <rect id="Retângulo_26" data-name="Retângulo 26" width="13" height="13" transform="matrix(0.777, 0.629, -0.629, 0.777, 1849.9, 776.819)" fill="#78d1f3"/>
  <rect id="Retângulo_27" data-name="Retângulo 27" width="39" height="7" transform="translate(1822.429 636.849) rotate(3)" fill="#f54c25"/>
  <path id="Polígono_26" data-name="Polígono 26" d="M8,0l8,14H0Z" transform="translate(73.958 293.228) rotate(104)" fill="#ef4c29"/>
  <circle id="Elipse_8" data-name="Elipse 8" cx="7.5" cy="7.5" r="7.5" transform="translate(57 45)" fill="#fcbad6"/>
  <circle id="Elipse_9" data-name="Elipse 9" cx="7.5" cy="7.5" r="7.5" transform="translate(38 758)" fill="#fcbad6"/>
</svg>
